#!OML:ASF H:\ManfredObstacles\Project 1\Capture day 2\Session 1\male.ASF
:FULLY-SPECIFIED
:DEGREES
337
root 2.64777 16.2677 -32.2261 -163.837 3.43844 179.529
lowerback -4.38522 6.64125 -2.991
upperback 0.0112115 9.26179 -3.99876
thorax 2.64778 4.66593 -1.8399
lowerneck -42.3025 -6.88003 -4.61073
upperneck 35.0022 -10.412 5.20921
head 21.9576 -3.70532 0.347212
rclavicle -3.55825e-014 5.1684e-014
rhumerus -35.5603 27.7195 -102.681
rradius 99.6082
rwrist 10.0246
rhand -10.9467 -1.61204
rfingers 7.12502
rthumb 15.0718 -31.0434
lclavicle -3.55825e-014 5.1684e-014
lhumerus -66.6594 -24.6306 91.3553
lradius 103.19
lwrist -17.4908
lhand -15.7524 11.0114
lfingers 7.12502
lthumb 10.439 40.7322
rfemur 12.2616 3.12587 23.6821
rtibia 16.6214
rfoot 33.3757 -10.5761
rtoes -16.2393
lfemur -38.9564 -5.87345 -19.0484
ltibia 32.1193
lfoot 7.72128 17.1363
ltoes -1.74152
338
root 2.62825 16.2135 -32.5283 -164.117 3.32124 179.706
lowerback -4.17728 6.82227 -2.66633
upperback -0.11547 9.45595 -3.91033
thorax 2.44018 4.76529 -1.94684
lowerneck -41.8244 -7.16495 -5.07202
upperneck 34.993 -10.6168 5.30979
head 21.9016 -3.84719 0.41677
rclavicle -2.93207e-014 6.24184e-014
rhumerus -36.5704 26.9367 -102.561
rradius 99.459
rwrist 9.85685
rhand -11.0213 -1.74106
rfingers 7.12502
rthumb 15 -31.1778
lclavicle -2.93207e-014 6.24184e-014
lhumerus -66.7212 -25.3366 92.2479
lradius 103.59
lwrist -17.4872
lhand -15.7654 11.0048
lfingers 7.12502
lthumb 10.4265 40.7263
rfemur 11.9473 2.76312 23.6883
rtibia 19.2215
rfoot 34.1178 -11.4654
rtoes -15.5615
lfemur -38.2337 -5.95241 -19.1357
ltibia 32.1802
lfoot 8.37912 17.0003
ltoes 1.88108
339
root 2.60735 16.1472 -32.8288 -164.434 3.19374 179.894
lowerback -3.94546 6.9149 -2.35087
upperback -0.247058 9.53316 -3.79951
thorax 2.20793 4.80544 -2.03818
lowerneck -41.3383 -7.29976 -5.3632
upperneck 35.0381 -10.6944 5.3318
head 21.8479 -3.93441 0.45657
rclavicle -3.56818e-014 -2.22639e-014
rhumerus -37.6403 26.1061 -102.528
rradius 99.1112
rwrist 9.72714
rhand -11.0421 -1.94499
rfingers 7.12502
rthumb 14.9799 -31.3832
lclavicle -3.56818e-014 -2.22639e-014
lhumerus -66.7631 -25.8523 93.101
lradius 103.947
lwrist -17.4592
lhand -15.8055 10.9933
lfingers 7.12502
lthumb 10.3877 40.7167
rfemur 11.5407 2.37676 23.6814
rtibia 22.0591
rfoot 34.3832 -12.3962
rtoes -15.2095
lfemur -37.5187 -5.91086 -19.3025
ltibia 32.7724
lfoot 9.07943 17.7423
ltoes 3.88677
340
root 2.58513 16.0699 -33.1276 -164.773 3.05046 180.062
lowerback -3.76125 6.79266 -2.16053
upperback -0.375847 9.33471 -3.65601
thorax 1.97321 4.70615 -2.04038
lowerneck -40.8371 -7.07509 -5.17848
upperneck 35.1314 -10.4844 5.17534
head 21.7396 -3.88456 0.413785
rclavicle 5.98342e-014 -5.96354e-015
rhumerus -38.7805 25.5412 -102.753
rradius 98.5459
rwrist 9.66552
rhand -10.9669 -2.21684
rfingers 7.12502
rthumb 15.0524 -31.6496
lclavicle 5.98342e-014 -5.96354e-015
lhumerus -66.7712 -25.8486 93.7198
lradius 104.294
lwrist -17.4471
lhand -15.8497 10.9751
lfingers 7.12502
lthumb 10.3452 40.7006
rfemur 11.0277 1.9824 23.6364
rtibia 25.1045
rfoot 34.1547 -13.1425
rtoes -15.3208
lfemur -36.8033 -5.78303 -19.5544
ltibia 33.8252
lfoot 10.1863 19.7031
ltoes 3.88807
341
root 2.56189 15.984 -33.4248 -165.128 2.88133 180.155
lowerback -3.6212 6.5191 -2.09762
upperback -0.417279 8.94951 -3.51557
thorax 1.82969 4.51215 -1.97465
lowerneck -40.6112 -6.66962 -4.70939
upperneck 35.2863 -10.132 4.92638
head 21.6964 -3.74717 0.315046
rclavicle 1.28912e-013 -3.77691e-014
rhumerus -39.7685 25.1013 -103.026
rradius 97.7829
rwrist 9.68354
rhand -10.8066 -2.55902
rfingers 7.12502
rthumb 15.2068 -31.9802
lclavicle 1.28912e-013 -3.77691e-014
lhumerus -66.5005 -25.5424 94.1123
lradius 104.553
lwrist -17.4966
lhand -15.9151 10.9336
lfingers 7.12502
lthumb 10.2821 40.6623
rfemur 10.4133 1.57393 23.4958
rtibia 28.3159
rfoot 33.4515 -13.6113
rtoes -15.5291
lfemur -36.08 -5.63767 -19.919
ltibia 35.2417
lfoot 12.7554 23.1932
ltoes 4.33496
342
root 2.53847 15.8911 -33.7179 -165.499 2.67701 180.154
lowerback -3.54767 6.11045 -2.1672
upperback -0.281541 8.4019 -3.38309
thorax 1.88575 4.23459 -1.83186
lowerneck -40.7944 -6.12358 -3.97693
upperneck 35.4467 -9.6613 4.59299
head 21.7237 -3.52446 0.159148
rclavicle -2.80286e-014 -7.15625e-015
rhumerus -40.4046 24.7995 -103.226
rradius 96.8057
rwrist 9.77536
rhand -10.5935 -2.95784
rfingers 7.12502
rthumb 15.4121 -32.3633
lclavicle -2.80286e-014 -7.15625e-015
lhumerus -65.7303 -25 94.246
lradius 104.69
lwrist -17.5651
lhand -16.0173 10.8838
lfingers 7.12502
lthumb 10.1835 40.6173
rfemur 9.6855 1.16362 23.2535
rtibia 31.6724
rfoot 32.3386 -13.8097
rtoes -15.8899
lfemur -35.3432 -5.52572 -20.3822
ltibia 36.8987
lfoot 14.9334 26.351
ltoes 7.25681
343
root 2.51577 15.7934 -34.0065 -165.891 2.43665 180.066
lowerback -3.41254 5.65174 -2.33061
upperback -0.060995 7.79477 -3.27052
thorax 1.98798 3.92685 -1.662
lowerneck -41.202 -5.54491 -3.16814
upperneck 35.5968 -9.1657 4.24081
head 21.799 -3.27396 -0.0149465
rclavicle -2.76311e-014 -1.59028e-014
rhumerus -40.8551 24.3802 -103.314
rradius 95.6473
rwrist 10.0252
rhand -10.3603 -3.37099
rfingers 7.12502
rthumb 15.6367 -32.759
lclavicle -2.76311e-014 -1.59028e-014
lhumerus -64.6242 -24.4188 94.3035
lradius 104.685
lwrist -17.7179
lhand -16.1371 10.8361
lfingers 7.12502
lthumb 10.0679 40.5753
rfemur 8.84598 0.759619 22.9261
rtibia 35.1546
rfoot 30.9702 -13.8209
rtoes -16.1366
lfemur -34.5892 -5.47668 -20.9121
ltibia 38.6731
lfoot 13.8451 28.0071
ltoes 6.28168
344
root 2.49441 15.6935 -34.2901 -166.324 2.18471 179.866
lowerback -3.19225 5.21485 -2.58216
upperback 0.258594 7.22408 -3.18194
thorax 2.14307 3.63666 -1.46809
lowerneck -41.7595 -5.06575 -2.50157
upperneck 35.686 -8.74454 3.97175
head 21.9006 -3.04917 -0.145435
rclavicle -8.24956e-014 1.63003e-014
rhumerus -41.0969 23.6923 -103.17
rradius 94.3161
rwrist 10.4115
rhand -10.1608 -3.77301
rfingers 7.12502
rthumb 15.8288 -33.1459
lclavicle -8.24956e-014 1.63003e-014
lhumerus -63.1445 -23.956 94.4141
lradius 104.49
lwrist -17.8528
lhand -16.2912 10.7994
lfingers 7.12502
lthumb 9.91922 40.5457
rfemur 7.90685 0.363498 22.481
rtibia 38.7563
rfoot 29.4608 -13.6769
rtoes -16.3443
lfemur -33.7848 -5.48133 -21.5326
ltibia 40.4479
lfoot 9.40871 27.7674
ltoes 3.44999
345
root 2.47543 15.5948 -34.5695 -166.802 1.94664 179.568
lowerback -2.88946 4.83457 -2.91418
upperback 0.655508 6.73579 -3.10971
thorax 2.33151 3.38701 -1.24467
lowerneck -42.3804 -4.73455 -2.06264
upperneck 35.6846 -8.42401 3.81452
head 21.9913 -2.87144 -0.208486
rclavicle -6.05299e-014 -7.55382e-015
rhumerus -41.1966 22.6648 -102.777
rradius 92.8238
rwrist 10.9353
rhand -10.0345 -4.16075
rfingers 7.12502
rthumb 15.9504 -33.524
lclavicle -6.05299e-014 -7.55382e-015
lhumerus -61.3329 -23.6817 94.6427
lradius 104.083
lwrist -17.9607
lhand -16.478 10.8118
lfingers 7.12502
lthumb 9.73898 40.5666
rfemur 6.865 -0.011266 21.9271
rtibia 42.4634
rfoot 27.9121 -13.4711
rtoes -16.4923
lfemur -32.907 -5.50021 -22.2276
ltibia 42.1256
lfoot 4.63356 26.1477
ltoes 3.14815
346
root 2.46046 15.4992 -34.8448 -167.312 1.75338 179.135
lowerback -2.50853 4.51948 -3.3856
upperback 1.09239 6.34509 -3.06967
thorax 2.51304 3.18587 -0.976446
lowerneck -42.9722 -4.54585 -1.83693
upperneck 35.6032 -8.21405 3.77143
head 22.0505 -2.74657 -0.207241
rclavicle 3.97569e-015 3.77691e-014
rhumerus -41.2396 21.285 -102.186
rradius 91.1664
rwrist 11.5532
rhand -10.0355 -4.54984
rfingers 7.12502
rthumb 15.9495 -33.9132
lclavicle 3.97569e-015 3.77691e-014
lhumerus -59.2459 -23.6079 94.9955
lradius 103.473
lwrist -17.9382
lhand -16.6693 10.8997
lfingers 7.12502
lthumb 9.55442 40.6631
rfemur 5.69499 -0.363926 21.223
rtibia 46.2716
rfoot 26.4186 -13.1904
rtoes -16.676
lfemur -31.9375 -5.47679 -23.0348
ltibia 43.6252
lfoot 1.36153 24.6346
ltoes 3.87338
347
root 2.45012 15.4101 -35.1177 -167.836 1.63948 178.53
lowerback -2.08703 4.25044 -4.07567
upperback 1.54242 6.0309 -3.06467
thorax 2.67414 3.02155 -0.621996
lowerneck -43.2625 -4.35977 -1.52829
upperneck 35.9585 -7.98719 3.62929
head 21.3007 -2.64658 -0.151916
rclavicle -5.68524e-014 4.92986e-014
rhumerus -41.3029 19.6363 -101.451
rradius 89.3434
rwrist 12.2053
rhand -10.1671 -4.96816
rfingers 7.12502
rthumb 15.8227 -34.3416
lclavicle -5.68524e-014 4.92986e-014
lhumerus -56.9354 -23.6982 95.4439
lradius 102.622
lwrist -17.8163
lhand -16.8941 11.095
lfingers 7.12502
lthumb 9.33749 40.8682
rfemur 4.37698 -0.690625 20.3109
rtibia 50.1625
rfoot 24.9841 -12.8753
rtoes -17.0033
lfemur -30.8507 -5.37604 -23.9918
ltibia 44.8874
lfoot -0.643558 23.8908
ltoes 3.49613
348
root 2.44378 15.329 -35.3875 -168.348 1.61751 177.786
lowerback -1.64144 3.95369 -5.01659
upperback 1.925 5.68758 -3.08312
thorax 2.741 2.8408 -0.158082
lowerneck -43.5665 -4.16899 -1.36232
upperneck 35.75 -7.75017 3.62933
head 21.2099 -2.52664 -0.105399
rclavicle -1.53064e-014 7.27552e-014
rhumerus -41.571 17.9779 -100.766
rradius 87.3505
rwrist 12.7357
rhand -10.4738 -5.52402
rfingers 7.12502
rthumb 15.5273 -34.9206
lclavicle -1.53064e-014 7.27552e-014
lhumerus -54.5923 -23.7275 95.9035
lradius 101.617
lwrist -17.543
lhand -17.1416 11.445
lfingers 7.12502
lthumb 9.09875 41.2287
rfemur 2.86049 -0.984748 19.2234
rtibia 54.1285
rfoot 23.6165 -12.5399
rtoes -17.4206
lfemur -29.6795 -5.17156 -25.0529
ltibia 45.9382
lfoot -2.00238 23.6786
ltoes 1.8838
349
root 2.44004 15.2564 -35.6554 -168.827 1.67482 176.941
lowerback -1.18995 3.69783 -6.09184
upperback 2.21566 5.39656 -3.13384
thorax 2.71174 2.68658 0.34631
lowerneck -43.5921 -4.02675 -1.30532
upperneck 35.5069 -7.56062 3.70516
head 21.0609 -2.4374 -0.0171706
rclavicle 1.31198e-014 4.73108e-014
rhumerus -42.0831 16.1878 -100.019
rradius 85.241
rwrist 13.1302
rhand -10.9202 -6.29795
rfingers 7.12502
rthumb 15.0973 -35.7274
lclavicle 1.31198e-014 4.73108e-014
lhumerus -52.3005 -23.8811 96.4573
lradius 100.497
lwrist -17.2074
lhand -17.3915 11.9893
lfingers 7.12502
lthumb 8.85756 41.7834
rfemur 1.1459 -1.25899 17.9979
rtibia 58.1335
rfoot 22.2953 -12.2218
rtoes -17.9052
lfemur -28.3989 -4.87847 -26.1813
ltibia 46.7015
lfoot -2.71998 24.0019
ltoes -0.69053
